<svg width="1600" height="1200" xmlns="http://www.w3.org/2000/svg">
 <!-- Created with Method Draw - http://github.com/duopixel/Method-Draw/ -->

 <g>
  <title>background</title>
  <rect fill="#fff" id="canvas_background" height="1202" width="1602" y="-1" x="-1"/>
  <g display="none" overflow="visible" y="0" x="0" height="100%" width="100%" id="canvasGrid">
   <rect fill="url(#gridpattern)" stroke-width="0" y="0" x="0" height="100%" width="100%"/>
  </g>
 </g>
 <g>
  <title>Layer 1</title>
  <path d="m1115,425c0,-2 0,-2 0,-2c-4,-17 -6.136719,-23.955597 -9,-33c-3.151123,-9.9534 -7.647095,-21.22049 -19,-39c-7.761719,-12.155457 -16.700073,-25.236298 -27,-38c-10.694458,-13.252533 -31.026733,-33.299164 -48,-45c-18.075623,-12.4608 -39.705994,-21.815262 -72,-33c-21.81543,-7.555588 -44.753296,-15.041122 -68,-20c-35.693542,-7.613983 -59.984375,-8.499893 -84,-9c-22.994995,-0.478851 -47.41748,1.308426 -79,10c-21.342468,5.873505 -41,15 -60,24c-19,9 -44.639587,24.12323 -60,36c-15.702942,12.141602 -29.740784,26.352844 -48,48c-11.479553,13.609558 -22.352112,29.76355 -33,46c-10.347076,15.777771 -21.579346,40.819153 -26,56c-4.611084,15.834717 -7.518951,33.930756 -11,62c-2.351318,18.959717 -4.05072,37.029053 -3,56c1.001526,18.083069 5.092682,46.657593 18,81c9.6091,25.566895 24,50 29,58c10,16 19.985962,30.937317 33,44c20.516418,20.59314 37,30 53,41c16,11 41.891296,24.263245 61,32c17.90155,7.247986 36.714783,12.935303 55,18c26.655029,7.382996 45.987366,10.076965 64,13c18.987,3.081177 45.979187,5.499817 64,6c17.993042,0.499451 34.004028,0.369324 51,0c23.016296,-0.500122 37.096436,-2.129822 50,-4c14.169739,-2.053711 34.122681,-8.649231 46,-13c10.113159,-3.704529 18.892456,-9.164551 28,-15c12.852417,-8.234924 21.752563,-13.34491 30,-19c7.78064,-5.335022 19.199585,-13.742737 27,-20c7.19165,-5.768921 13.81189,-13.192566 22,-21c10.759033,-10.25885 17.541504,-16.570007 23,-24c5.585449,-7.602783 13.882935,-19.074341 19,-27c5.867065,-9.087219 12.388184,-17.7771 18,-28c7.532104,-13.721069 9.796631,-22.09314 14,-31c3.817261,-8.088745 9.567261,-20.809631 12,-29c2.625,-8.837952 4.298096,-16.938904 6,-26c2.427979,-12.92688 3.05481,-20.993347 4,-29c1.061646,-8.99292 2.499023,-20.953308 3,-29c0.745605,-11.976807 0,-16 0,-25c0,-14 0.244751,-23.030579 -1,-32c-5.853271,-42.17511 -9.893311,-51.028198 -11,-55c-3.650757,-13.102386 -7.236694,-19.885956 -11,-28c-3.204346,-6.908844 -8.40625,-18.78302 -12,-26c-3.394775,-6.817291 -7,-13 -11,-19c-6,-9 -9.439697,-16.436249 -15,-23c-5.484619,-6.474426 -14.891724,-13.19577 -22,-17c-7.885986,-4.220428 -16.216675,-8.59317 -24,-13c-11.346069,-6.424011 -17.801392,-11.424805 -26,-15c-7.831787,-3.415192 -19.801392,-8.424805 -28,-12c-7.831787,-3.415192 -15.885803,-6.324219 -24,-9c-13.827759,-4.559906 -24,-7 -34,-9c-10,-2 -25.922668,-5.43544 -36,-7c-8.948181,-1.389267 -18.962585,-3.499374 -29,-4c-14.981384,-0.747208 -38.003662,-0.191879 -43,0c-13.028809,0.500366 -22.127014,2.191589 -31,4c-10.22998,2.084976 -18.875732,5.362595 -33,10c-9.919312,3.256805 -18.957092,7.108917 -29,11c-15.933838,6.173523 -25.7771,11.388184 -36,17c-9.800781,5.380096 -20,11 -35,20c-10,6 -19.238892,12.739075 -28,21c-9.260498,8.73175 -22.299438,21.742493 -30,31c-7.291382,8.765594 -13.478882,17.754242 -21,33c-5.345764,10.836182 -8.945068,23.020142 -13,34c-5.919922,16.029785 -9,28 -12,40c-3,12 -5.740356,23.892151 -8,42c-1.491089,11.948914 -1.745667,24.023193 -1,36c1.001953,16.093384 3,22 6,40c2,12 3.473877,25.184021 10,43c1.852295,5.05658 8.786743,22.109009 15,34c5.802734,11.105347 14.786743,29.109009 21,41c5.802734,11.105347 13,21 25,36c8,10 17.181702,18.821899 26,28c12.257446,12.757568 21,21 30,28c9,7 17.685181,14.509644 32,23c10.776978,6.391968 22.06488,10.825989 33,15c15.093323,5.76123 25.862488,10.559692 37,13c11.883606,2.603821 22.976563,3.499756 39,4c8.995605,0.280823 17,0 23,0c12,0 20,0 27,0c7,0 14.051819,0.389282 23,-1c5.038635,-0.782288 10.974182,-2.139099 16,-3c6.969543,-1.193848 15.838074,-3.465515 21,-5c4.887634,-1.452942 10.784241,-3.654541 19,-6c4.903137,-1.399719 10.01947,-1.605835 14,-2c5.074219,-0.502441 11,-3 15,-4c4,-1 8.091187,-1.795654 15,-5c4.057007,-1.881653 9.087402,-3.793945 14,-6c6.119507,-2.748047 11.30542,-5.361694 16,-8c4.358765,-2.449646 8.663086,-6.663818 20,-12c4.872437,-2.293396 10.197998,-4.632996 16,-8c6.236938,-3.619446 10,-7 14,-10c4,-3 10.28418,-8.73114 15,-14c4.270386,-4.771118 8.890747,-10.089355 13,-15c6.821899,-8.152344 12.419678,-13.673828 17,-20c5.532593,-7.641418 13,-20 18,-28c5,-8 9.206909,-15.919678 13,-26c6.348999,-16.872742 10.117188,-27.968689 13,-39c3.127441,-11.967407 7.779785,-32.045715 11,-47c2.808594,-13.042725 4.499634,-23.971191 5,-37c0.921021,-23.9823 1,-43 1,-58c0,-12 -0.856934,-29.022797 -3,-42c-2.812622,-17.032013 -5.849121,-32.047394 -10,-45c-5.790283,-18.068542 -11.189819,-30.906708 -18,-45c-7.202026,-14.904053 -19.741455,-35.264801 -31,-46c-10.759033,-10.25885 -23.189575,-20.244873 -38,-29c-23.871704,-14.111725 -41,-20 -57,-27c-16,-7 -40.79248,-18.585587 -57,-24c-16.807007,-5.61467 -34.963135,-8.343246 -52,-10c-25.954407,-2.523941 -43.007324,-3.527161 -62,-3c-18.020813,0.500198 -43.016235,3.909302 -60,7c-16.015808,2.914551 -30.965149,7.124039 -45,11c-14.963989,4.132568 -44.041931,13.903976 -51,17c-13.081299,5.820587 -33.207397,17.627838 -46,25c-13.225403,7.621582 -26,16 -40,26c-21,15 -34.263489,26.742157 -46,39c-11.258118,11.758209 -28.22699,32.840607 -38,47c-10.24054,14.836823 -18.732239,29.699249 -25,46c-9.079346,23.612823 -12,40 -14,57c-2,17 -3.059631,42.035156 -2,58c1.002197,15.099548 5,32 9,49c4,17 9.382629,43.230652 16,60c6.410522,16.245178 19.040466,39.552612 28,54c9.067383,14.621277 18.35907,29.447632 29,44c11.338379,15.506165 34,33 51,43c17,10 44,24 61,33c17,9 33.053345,16.842346 51,23c17.052002,5.850647 43.956421,12.469666 63,14c17.969849,1.444031 45.09137,1.478271 62,-2c17.106079,-3.518921 33.093689,-6.709595 49,-12c17.106384,-5.689575 42.891846,-18.233948 60,-26c15.902466,-7.218811 39.269165,-18.659485 52,-29c14.312622,-11.625305 28.466797,-24.584106 40,-38c16.696655,-19.42218 25.01709,-34.557556 32,-52c7.051758,-17.614563 22.103271,-58.820984 24,-74c4.842163,-38.749878 3.499878,-60.987061 4,-90c0.327393,-18.997192 -1.534058,-40.059814 -6,-73c-2.717041,-20.040405 -7.107056,-38.272217 -13,-56c-6.092163,-18.327179 -15.011841,-35.518036 -29,-61c-8.417725,-15.334351 -17.878296,-30.091827 -33,-50c-9.920532,-13.06073 -20.363159,-26.74881 -32,-36c-12.376831,-9.839462 -27.010315,-15.974838 -49,-25c-17.007996,-6.980545 -32.861023,-14.429642 -57,-22c-16.90802,-5.302628 -34.904358,-9.484741 -54,-13c-18.917542,-3.482468 -38.987915,-6.499939 -70,-7c-21.997131,-0.354706 -44.310303,1.449982 -78,9c-22.251587,4.986679 -45.44812,11.974228 -67,22c-21.494568,9.99913 -41.348572,21.458557 -68,39c-16.21875,10.674866 -31.562256,23.419586 -45,37c-20.912476,21.134552 -32.551147,37.575226 -44,53c-11.572296,15.591095 -22.330933,33.414154 -35,64c-8.958405,21.627472 -16.071533,43.717804 -24,76c-4.631042,18.85614 -7.998749,37.925232 -9,58c-0.946472,18.97644 -0.469666,38.037537 2,66c1.680817,19.030884 5.003418,38.25885 13,67c5.340759,19.19574 12.244232,37.398132 22,55c10.226196,18.450623 20.371887,36.464478 39,61c11.615784,15.299438 38.034729,41.956726 53,54c21.049072,16.939209 34.664673,26.522278 50,36c13.716309,8.477173 35.947632,17.14917 50,22c14.945984,5.159241 28.806519,9.760803 51,15c14.887817,3.514526 31.007813,5.499268 47,5c16.023438,-0.500244 41.007813,-3.500732 57,-4c16.023438,-0.500244 30.958923,-3.166809 55,-9c16.971802,-4.117981 35.15448,-7.392456 52,-12c16.169128,-4.422546 40.676697,-16.639221 58,-25c15.728271,-7.590942 37.343506,-16.396545 50,-24c12.362793,-7.427002 24.668213,-17.171997 36,-27c10.683716,-9.26593 26.287109,-23.134888 34,-36c8.511353,-14.197083 16.856201,-31.524597 26,-49c13.275757,-25.372314 18.551147,-45.910889 22,-69c3.57312,-23.921387 4.913452,-57.070129 3,-76c-2.033813,-20.121216 -6.45874,-41.912598 -11,-67c-6.676636,-36.883911 -11.449707,-57.223785 -19,-75c-11.194702,-26.35675 -20.798584,-45.097107 -31,-66c-8.826538,-18.085693 -19.386597,-31.682495 -30,-45c-15.581055,-19.550751 -25.227295,-35.609833 -38,-51c-10.39624,-12.526703 -26.749084,-27.324127 -37,-35c-9.770874,-7.316437 -27.871704,-20.212357 -41,-28c-13.868103,-8.226501 -28.958496,-14.134842 -45,-19c-16.957336,-5.142899 -43,-10 -61,-13c-18,-3 -64,-6 -83,-6c-18,0 -36.074219,0.476105 -52,3c-26.150024,4.144226 -43.09198,8.697372 -60,14c-18.104248,5.677765 -35.958862,14.085785 -63,27c-18.971313,9.060272 -38.272766,19.565643 -56,31c-25.405884,16.387207 -41.949158,27.911987 -57,42c-13.948029,13.055756 -32.329102,32.753357 -42,46c-9.32312,12.770264 -17.890442,25.558044 -25,41c-10.32901,22.434601 -15,40 -19,58c-4,18 -7.745697,34.927551 -10,62c-1.495972,17.965576 -1.218903,36.013489 0,54c1.695709,25.022461 3.875122,41.031738 8,57c3.88269,15.030762 7.750244,30.495544 17,52c6.184753,14.378784 13.175293,26.893738 21,40c11.25415,18.850586 18,32 25,43c7,11 14.623749,21.387451 28,34c8.761139,8.260925 18,16 28,24c15,12 26,19 38,25c12,6 23.833435,11.444336 42,18c11.898132,4.293579 25.988037,6.199524 41,7c24.984497,1.332275 42,2 58,3c16,1 39.975037,2.499695 55,3c15.99115,0.532471 32.013367,0.194458 48,-1c23.022644,-1.720215 37,-4 50,-6c13,-2 48.365417,-13.210449 62,-20c14.43396,-7.187622 28.125122,-17.839417 41,-28c21.209412,-16.738037 81.476929,-86.2948 98,-115c5.817749,-10.107117 18.33252,-31.130676 30,-66c7.54248,-22.541321 11.491089,-45.926331 15,-71c3.489746,-24.93634 5.440308,-68.005585 6,-96c0.500122,-25.014984 2.390259,-49.02478 1,-88c-1.00061,-28.053497 -2.493286,-55.300293 -8,-79c-4.72583,-20.338806 -17.91272,-44.062775 -28,-58c-10.906006,-15.068451 -30.920288,-35.11351 -38,-40c-20.771545,-14.336761 -34.684143,-22.586166 -51,-31c-16.698669,-8.611252 -255.551941,-12.47551 -292,2c-18.306763,7.27063 -36.445679,15.112564 -61,28c-14.277466,7.493591 -27.095825,15.876663 -40,26c-20.151428,15.808823 -33.509766,27.512848 -44,39c-10.533508,11.534515 -17.798584,24.097107 -28,45c-7.845795,16.076172 -15.56662,32.810516 -21,50c-7.824554,24.754333 -9,43 -9,61c0,19 -2.096832,37.425781 5,67c4.649323,19.374817 12.986603,38.006042 22,58c13.979248,31.009399 23.677307,53.747803 36,74c12.690002,20.855774 30.36908,42.098389 62,65c22.924194,16.597656 48.641785,29.71344 74,42c39.473999,19.125916 67.720703,29.091797 97,36c60.507751,14.276306 105.824219,20.525208 134,23c29.90155,2.626343 61.42926,-0.397522 109,-14c31.317871,-8.955078 59.946777,-19.322021 84,-34c25.105591,-15.32019 60.20752,-46.946594 81,-72c19.159058,-23.085266 34.502686,-50.316467 47,-101c8.780029,-35.607727 15.164307,-66.323059 11,-93c-4.048462,-25.934723 -27.929688,-66.61145 -46,-97c-17.012939,-28.610443 -36.102539,-54.83432 -70,-88c-22.794678,-22.302551 -46.968384,-46.033005 -71,-69c-23.05481,-22.033508 -63.630432,-44.143982 -93,-53c-26.705017,-8.052551 -149.058899,-3.163376 -177,7c-27.057922,9.842133 -61.861633,25.701508 -82,40c-22.030273,15.6418 -44.863342,34.182831 -77,69c-20.234253,21.921997 -37.16156,46.338776 -51,72c-14.223816,26.375824 -29.518372,65.683716 -34,91c-4.562256,25.77179 -5.561096,55.183014 -1,101c3.208435,32.228943 13,63 23,93l11,26" id="svg_17" fill-opacity="null" stroke-opacity="null" stroke-width="1.5" stroke="#000" fill="none"/>
 </g>
</svg>